<?xml version="1.0" encoding="utf-8"?>
<!-- Svg Vector Icons : http://www.onlinewebfonts.com/icon -->
<!DOCTYPE svg PUBLIC "-//W3C//DTD SVG 1.1//EN" "http://www.w3.org/Graphics/SVG/1.1/DTD/svg11.dtd">
<svg version="1.1" xmlns="http://www.w3.org/2000/svg" xmlns:xlink="http://www.w3.org/1999/xlink" x="0px" y="0px" viewBox="0 0 1000 1000" enable-background="new 0 0 1000 1000" xml:space="preserve">
<metadata> Svg Vector Icons : http://www.onlinewebfonts.com/icon </metadata>
<g><g transform="matrix(1 0 0 -1 0 1920)"><path d="M500,930c-18.9,0-39.9,1.5-63.1,4.5l-32.4,129.2c-31.4,8.5-61,20.8-88.6,36.9l-114.4-68.5c-33.6,25.7-63.4,55.4-89.4,89l68.5,114.4c-16.1,27.9-28.3,57.5-36.5,89l-129.6,32.4c-3,23.2-4.5,44.3-4.5,63.1c0,18.9,1.5,39.9,4.5,63.1l129.6,32.4c8.2,31.2,20.4,60.7,36.5,88.6l-68.5,114.4c26,33.6,55.8,63.4,89.4,89.4l114.4-68.5c27.9,15.9,57.4,28,88.6,36.5l32.4,129.6c23.5,3,44.6,4.5,63.1,4.5c18.9,0,39.9-1.5,63.1-4.5l32.4-129.6c31.4-8.2,61.1-20.4,89-36.5l114.4,68.5c33.6-26,63.3-55.8,89-89.4l-68.5-114.4c16.1-27.9,28.4-57.4,36.9-88.6l129.6-32.4c2.7-23.5,4.1-44.6,4.1-63.1c0-18.6-1.4-39.6-4.1-63.1l-129.6-32.4c-8.5-31.4-20.8-61.1-36.9-89l68.9-114c-26.2-33.9-56-63.7-89.4-89.4l-114.4,68.5c-27.6-16.1-57.3-28.4-89-36.9l-32.4-129.2C539.9,931.5,518.9,930,500,930z M500,1248.6c23.2,0,45.4,4.5,66.6,13.5c21.2,9,39.4,21.2,54.7,36.5s27.5,33.6,36.5,54.7c9,21.2,13.5,43.4,13.5,66.6c0,23.2-4.5,45.4-13.5,66.6c-9,21.2-21.2,39.4-36.5,54.7s-33.6,27.5-54.7,36.5c-21.2,9-43.4,13.5-66.6,13.5c-30.9,0-59.5-7.7-85.9-23c-26.4-15.3-47.2-36.2-62.5-62.5c-15.3-26.4-23-55.1-23-86.1c0-31,7.7-59.7,23-85.9c15.3-26.2,36.2-47,62.5-62.3C440.5,1256.3,469.1,1248.6,500,1248.6z"/></g></g>
</svg>